<svg width="300" height="50" viewBox="0 0 300 50" fill="none" xmlns="http://www.w3.org/2000/svg">
<path d="M11.5058 36.2556L22.4134 18H28.854L19.5047 33.7802H23.4579L29.1946 24.1883H35.2608L27.1919 38.1122C25.5298 41 22.4134 41 21.0629 41H15.1417C10.9864 41 10.3631 38.2152 11.5058 36.2556Z" fill="#7DCB32"/>
<path d="M37.0607 41H31.0356L41.9254 22.5381H38.1856L40.8004 18H58.0071L55.221 22.5381H48.0532L37.0607 41Z" fill="#7DCB32"/>
<path d="M53.604 25.6322H48.8872L45.1885 31.8207H49.9055L53.604 25.6322Z" fill="#7DCB32"/>
<path d="M57.2136 33.4708L58.1486 37.1839L69.3776 18H75.6875L62.2 41H53.3884L51.5001 33.4708H57.2136Z" fill="#7DCB32"/>
<path d="M104.848 18.4545V24.0198H98.9036V40.8419H91.8839V24.0198H86.0024V18.4545H104.848Z" fill="white"/>
<path d="M113.772 24.0514V26.8024H120.728V32.083H113.772V35.2451H121.677V40.8419H106.752V18.4545H121.677V24.0514H113.772Z" fill="white"/>
<path d="M131.342 35.5296H138.109V40.8419H124.323V18.4545H131.342V35.5296Z" fill="white"/>
<path d="M147.338 24.0514V26.8024H154.294V32.083H147.338V35.2451H155.243V40.8419H140.318V18.4545H155.243V24.0514H147.338Z" fill="white"/>
<path d="M184.798 18.4545V40.8419H177.809V29.6798L174.363 40.8419H168.355L164.908 29.6798V40.8419H157.889V18.4545H166.489L171.422 31.8933L176.228 18.4545H184.798Z" fill="white"/>
<path d="M202.321 37.4585H194.858L193.752 40.8419H186.384L194.574 18.4545H202.669L210.827 40.8419H203.428L202.321 37.4585ZM200.613 32.1779L198.59 25.9486L196.566 32.1779H200.613ZM202.669 14.1858L194.479 17.1581V12.4783L202.669 9V14.1858Z" fill="white"/>
<path d="M230.003 18.4545V24.0198H224.058V40.8419H217.038V24.0198H211.157V18.4545H230.003Z" fill="white"/>
<path d="M238.926 18.4545V40.8419H231.907V18.4545H238.926Z" fill="white"/>
<path d="M241.464 29.6166C241.464 27.4032 241.907 25.4321 242.792 23.7036C243.699 21.975 244.985 20.6364 246.65 19.6877C248.316 18.7181 250.276 18.2332 252.532 18.2332C254.471 18.2332 256.2 18.6021 257.717 19.3399C259.256 20.0567 260.5 21.0791 261.449 22.4071C262.418 23.7352 263.061 25.2846 263.377 27.0553H255.978C255.641 26.3175 255.156 25.7484 254.524 25.3478C253.912 24.9262 253.206 24.7154 252.405 24.7154C251.225 24.7154 250.287 25.1581 249.591 26.0435C248.916 26.9289 248.579 28.1199 248.579 29.6166C248.579 31.1133 248.916 32.3043 249.591 33.1897C250.287 34.0751 251.225 34.5178 252.405 34.5178C253.206 34.5178 253.912 34.3175 254.524 33.917C255.156 33.4954 255.641 32.9157 255.978 32.1779H263.377C263.061 33.9486 262.418 35.498 261.449 36.8261C260.5 38.1542 259.256 39.1871 257.717 39.9249C256.2 40.6416 254.471 41 252.532 41C250.276 41 248.316 40.5257 246.65 39.5771C244.985 38.6074 243.699 37.2582 242.792 35.5296C241.907 33.8011 241.464 31.83 241.464 29.6166Z" fill="white"/>
<path d="M280.261 37.4585H272.798L271.691 40.8419H264.324L272.514 18.4545H280.608L288.767 40.8419H281.367L280.261 37.4585ZM278.553 32.1779L276.529 25.9486L274.506 32.1779H278.553Z" fill="white"/>
</svg>
