<svg width="1400" height="162" viewBox="0 0 1400 162" fill="none" xmlns="http://www.w3.org/2000/svg">
<path d="M2.5494 137.374L57.5258 45.3618H89.988L42.8654 124.897H62.7903L91.7044 76.5521H122.28L81.6103 146.731C73.2333 161.287 57.5258 161.287 50.7192 161.287H20.8749C-0.0685092 161.287 -3.21 147.251 2.5494 137.374Z" fill="#977E5B"/>
<path d="M131.351 161.287H100.983L155.87 68.235H137.021L150.2 45.3618H236.925L222.883 68.235H186.755L131.351 161.287Z" fill="#977E5B"/>
<path d="M214.733 83.8296H190.959L172.317 115.021H196.092L214.733 83.8296Z" fill="#977E5B"/>
<path d="M232.926 123.338L237.638 142.053L294.235 45.3618H326.038L258.059 161.287H213.646L204.129 123.338H232.926Z" fill="#977E5B"/>
<path d="M473.015 47.6529V75.7027H443.052V160.49H407.671V75.7027H378.028V47.6529H473.015Z" fill="#D6D1CA"/>
<path d="M517.992 75.8621V89.7276H553.054V116.343H517.992V132.28H557.835V160.49H482.611V47.6529H557.835V75.8621H517.992Z" fill="#D6D1CA"/>
<path d="M606.55 133.715H640.656V160.49H571.169V47.6529H606.55V133.715Z" fill="#D6D1CA"/>
<path d="M687.171 75.8621V89.7276H722.233V116.343H687.171V132.28H727.015V160.49H651.79V47.6529H727.015V75.8621H687.171Z" fill="#D6D1CA"/>
<path d="M875.976 47.6529V160.49H840.754V104.231L823.382 160.49H793.101L775.729 104.231V160.49H740.348V47.6529H783.698L808.56 115.387L832.785 47.6529H875.976Z" fill="#D6D1CA"/>
<path d="M964.296 143.437H926.684L921.106 160.49H883.972L925.25 47.6529H966.049L1007.17 160.49H969.874L964.296 143.437ZM955.69 116.821L945.49 85.4245L935.29 116.821H955.69ZM966.049 26.1373L924.772 41.1185V17.5312L966.049 0V26.1373Z" fill="#D6D1CA"/>
<path d="M1103.82 47.6529V75.7027H1073.86V160.49H1038.47V75.7027H1008.83V47.6529H1103.82Z" fill="#D6D1CA"/>
<path d="M1148.8 47.6529V160.49H1113.41V47.6529H1148.8Z" fill="#D6D1CA"/>
<path d="M1161.59 103.912C1161.59 92.7557 1163.82 82.8214 1168.28 74.1089C1172.85 65.3965 1179.33 58.6497 1187.73 53.8684C1196.12 48.981 1206 46.5372 1217.37 46.5372C1227.14 46.5372 1235.86 48.3966 1243.51 52.1153C1251.26 55.7278 1257.53 60.8809 1262.31 67.5746C1267.2 74.2683 1270.44 82.0776 1272.03 91.0026H1234.74C1233.04 87.2839 1230.6 84.4151 1227.41 82.3964C1224.33 80.2714 1220.77 79.2089 1216.73 79.2089C1210.78 79.2089 1206.05 81.4402 1202.55 85.9026C1199.15 90.3651 1197.45 96.3682 1197.45 103.912C1197.45 111.456 1199.15 117.459 1202.55 121.921C1206.05 126.384 1210.78 128.615 1216.73 128.615C1220.77 128.615 1224.33 127.606 1227.41 125.587C1230.6 123.462 1233.04 120.54 1234.74 116.821H1272.03C1270.44 125.746 1267.2 133.555 1262.31 140.249C1257.53 146.943 1251.26 152.149 1243.51 155.868C1235.86 159.48 1227.14 161.287 1217.37 161.287C1206 161.287 1196.12 158.896 1187.73 154.115C1179.33 149.227 1172.85 142.427 1168.28 133.715C1163.82 125.002 1161.59 115.068 1161.59 103.912Z" fill="#D6D1CA"/>
<path d="M1357.13 143.437H1319.52L1313.94 160.49H1276.8L1318.08 47.6529H1358.88L1400 160.49H1362.71L1357.13 143.437ZM1348.52 116.821L1338.32 85.4245L1328.12 116.821H1348.52Z" fill="#D6D1CA"/>
</svg>
